<?xml version="1.0" standalone="no"?>
<!DOCTYPE svg PUBLIC "-//W3C//DTD SVG 20010904//EN"
 "http://www.w3.org/TR/2001/REC-SVG-20010904/DTD/svg10.dtd">
<svg version="1.0" xmlns="http://www.w3.org/2000/svg"
 width="400.000000pt" height="400.000000pt" viewBox="0 0 400.000000 400.000000"
 preserveAspectRatio="xMidYMid meet">
<metadata>
Created by potrace 1.14, written by Peter Selinger 2001-2017
</metadata>
<g transform="translate(0.000000,400.000000) scale(0.100000,-0.100000)"
fill="#000000" stroke="none">
<path d="M0 2354 l0 -1646 47 7 c89 15 427 4 493 -15 19 -6 56 -10 82 -10 26
0 49 -4 52 -9 3 -4 27 -11 53 -14 69 -10 82 -12 89 -20 4 -4 17 -7 30 -7 12 0
35 -7 50 -15 16 -8 39 -15 52 -15 13 0 30 -6 37 -14 8 -7 41 -19 74 -27 34 -7
61 -16 61 -19 0 -3 17 -12 38 -19 20 -8 40 -18 43 -23 3 -5 15 -11 25 -13 10
-2 20 -4 22 -5 1 -2 5 -3 10 -4 13 -3 97 -48 102 -55 3 -4 21 -13 40 -21 19
-8 42 -22 52 -32 10 -10 29 -20 43 -24 14 -3 25 -10 25 -15 0 -5 6 -9 14 -9 8
0 21 -8 28 -17 7 -10 24 -24 38 -32 42 -23 136 -102 233 -193 l91 -88 1038 0
1039 0 -1 442 c-1 276 -5 437 -10 428 -6 -9 -10 -10 -10 -3 0 6 4 15 10 18 5
3 10 15 10 27 0 14 -5 18 -15 14 -10 -3 -15 -1 -14 7 1 6 -10 37 -24 67 -15
30 -27 63 -27 73 0 9 -4 17 -10 17 -5 0 -10 14 -10 32 0 20 -4 28 -9 22 -6 -5
-4 -30 6 -64 8 -30 19 -74 24 -98 5 -24 11 -48 14 -53 4 -5 1 -9 -5 -9 -6 0
-9 -4 -6 -9 7 -11 -17 -6 -112 22 -58 18 -77 28 -95 54 -22 34 -57 45 -57 19
0 -8 -9 -18 -20 -21 -11 -3 -20 -12 -20 -19 0 -22 -47 -15 -71 10 -12 13 -25
21 -29 19 -4 -3 -7 3 -6 12 0 9 -6 18 -14 20 -13 4 -13 3 0 -7 13 -10 12 -11
-3 -6 -10 3 -21 6 -23 6 -2 0 -4 11 -4 25 0 14 -6 28 -14 31 -8 3 -18 19 -21
34 -4 18 -11 27 -19 24 -8 -3 -17 6 -21 23 -11 36 -10 33 -23 66 -7 16 -12 35
-12 43 0 8 -3 13 -7 11 -11 -7 -11 236 -1 244 5 3 9 24 11 46 2 37 4 40 27 37
19 -3 21 -2 10 5 -12 8 -12 13 -2 23 9 9 12 9 12 0 0 -7 4 -12 9 -12 5 0 7 10
5 23 -2 12 -2 17 2 10 3 -7 12 -9 20 -6 8 3 14 0 14 -6 0 -6 6 -11 14 -11 9 0
12 7 9 19 -3 12 4 29 16 42 12 13 21 32 22 43 3 53 8 75 32 128 14 31 23 58
21 61 -2 2 6 3 19 3 12 -1 21 4 20 11 -4 19 51 -1 62 -23 6 -12 17 -28 25 -36
8 -9 31 -35 50 -59 19 -23 54 -61 78 -84 23 -22 42 -48 42 -56 0 -9 11 -26 25
-39 14 -13 25 -29 25 -35 0 -13 62 -85 73 -85 4 0 7 558 7 1240 l0 1240 -122
0 -121 0 19 -22 c10 -13 23 -26 27 -29 13 -9 -4 -60 -22 -66 -9 -2 -29 -12
-46 -21 -35 -19 -231 -25 -254 -8 -8 6 -53 11 -101 11 -72 0 -90 3 -106 19
-38 39 -24 81 36 108 8 4 -733 7 -1647 7 l-1663 1 0 -1646z m963 1397 l38 -23
65 27 c36 15 67 25 71 22 3 -4 0 -26 -6 -51 -19 -77 -15 -96 31 -143 23 -23
39 -45 36 -49 -6 -5 -49 -11 -108 -13 -20 -1 -32 -13 -59 -62 -18 -33 -38 -58
-44 -56 -7 2 -25 31 -41 64 l-29 61 -59 12 c-32 7 -61 16 -63 21 -3 4 15 25
41 46 l46 38 -6 71 c-4 38 -3 73 0 77 4 4 17 1 28 -6 12 -7 38 -24 59 -36z
m1277 -456 c258 -62 473 -209 569 -388 34 -62 51 -175 40 -256 -19 -132 -108
-262 -219 -320 l-46 -24 -31 32 c-42 41 -84 42 -124 2 -33 -33 -36 -58 -14
-101 22 -42 71 -54 122 -28 29 15 81 -19 179 -116 157 -156 224 -317 224 -539
0 -223 -87 -427 -254 -593 -264 -262 -653 -348 -1041 -229 -265 81 -485 278
-536 479 -17 67 -6 190 22 257 53 125 170 232 285 261 27 6 53 15 57 19 5 4
-23 27 -62 53 -173 111 -293 278 -335 466 -54 238 -15 456 119 655 134 198
362 337 624 380 106 18 329 12 421 -10z m1221 -161 c27 -20 49 -39 49 -44 0
-5 -26 -14 -57 -21 -32 -7 -62 -16 -68 -21 -5 -5 -19 -34 -30 -65 -11 -31 -25
-58 -31 -60 -6 -2 -29 23 -50 57 l-39 60 -60 1 c-33 1 -63 1 -67 0 -15 -2 -8
15 21 49 36 43 130 77 220 79 58 1 67 -2 112 -35z m-3009 -726 c16 -7 28 -16
28 -20 0 -4 8 -15 19 -25 10 -10 19 -32 19 -49 l1 -32 -87 -5 c-48 -2 -125 -1
-171 4 -46 5 -92 7 -102 4 -11 -4 -19 0 -23 13 -9 28 2 49 29 56 13 3 30 12
37 19 22 19 61 40 93 48 40 11 123 4 157 -13z m443 -517 c3 -5 0 -15 -7 -23
-7 -7 -13 -17 -13 -23 -1 -5 -16 -41 -35 -78 l-35 -68 49 -91 48 -90 -73 6
c-41 4 -89 9 -107 13 -32 5 -39 1 -110 -70 -49 -49 -81 -74 -89 -69 -7 4 -19
52 -28 107 -9 55 -17 100 -18 101 -1 1 -42 20 -91 44 -48 23 -84 45 -80 50 5
4 49 29 97 54 75 40 101 49 175 57 107 12 144 22 224 59 69 31 84 35 93 21z
m2442 -563 c-3 -7 -5 -2 -5 12 0 14 2 19 5 13 2 -7 2 -19 0 -25z m91 -233 c-3
-3 -9 2 -12 12 -6 14 -5 15 5 6 7 -7 10 -15 7 -18z m409 -181 c-3 -3 -12 -4
-19 -1 -8 3 -5 6 6 6 11 1 17 -2 13 -5z"/>
<path d="M1803 3125 c-285 -65 -493 -251 -555 -497 -17 -70 -20 -102 -15 -198
8 -168 45 -261 146 -373 98 -106 213 -173 530 -307 220 -93 295 -132 318 -167
15 -23 15 -27 -5 -68 -50 -103 -192 -150 -337 -111 -68 18 -104 38 -145 81
-132 141 -370 102 -446 -73 -24 -54 -23 -156 3 -213 25 -57 140 -172 216 -218
66 -39 149 -73 233 -97 88 -25 329 -31 428 -10 344 71 597 362 596 688 0 91
-21 181 -59 256 -88 175 -232 278 -596 425 -212 86 -312 135 -336 165 -44 56
-10 136 74 173 43 19 69 23 152 24 113 0 142 -10 210 -76 107 -103 265 -109
372 -16 88 78 115 188 73 301 -41 109 -213 238 -395 296 -58 19 -97 23 -235
26 -116 2 -183 -1 -227 -11z m207 -110 c6 -8 10 -22 8 -32 -3 -15 -17 -19 -88
-24 -154 -10 -284 -70 -397 -181 -53 -52 -64 -59 -77 -48 -24 19 -19 41 15 83
57 69 189 153 293 187 90 29 227 38 246 15z m362 -1371 c58 -77 44 -171 -39
-264 -44 -49 -85 -65 -96 -37 -7 18 9 53 27 60 25 10 76 98 76 131 0 16 -12
49 -26 73 -14 25 -23 51 -20 59 10 26 50 15 78 -22z m-798 -159 c10 -26 -5
-45 -46 -55 -22 -6 -56 -26 -76 -44 -32 -30 -36 -39 -40 -94 -3 -49 -8 -63
-23 -67 -27 -9 -37 1 -45 40 -9 50 13 127 46 164 53 57 169 93 184 56z"/>
<path d="M3841 1344 c0 -11 3 -14 6 -6 3 7 2 16 -1 19 -3 4 -6 -2 -5 -13z"/>
<path d="M3872 1210 c0 -14 2 -19 5 -12 2 6 2 18 0 25 -3 6 -5 1 -5 -13z"/>
</g>
</svg>
